{"glyphs":{":":{"x_min":0,"x_max":276,"ha":276,"o":"m 50 78 q 50 96 57 112 q 64 128 75 139 q 87 150 103 157 q 119 164 138 164 q 156 164 172 157 q 188 150 200 139 q 212 128 219 112 q 226 96 226 78 q 226 60 219 45 q 212 29 200 18 q 188 6 172 0 q 156 -7 138 -7 q 119 -7 103 0 q 87 6 75 18 q 64 29 57 45 q 50 60 50 78 z m 50 420 q 50 438 57 454 q 64 469 75 480 q 87 492 103 499 q 119 506 138 506 q 156 506 172 499 q 188 492 200 480 q 212 469 219 454 q 226 438 226 420 q 226 402 219 386 q 212 370 200 359 q 188 348 172 341 q 156 334 138 334 q 119 334 103 341 q 87 348 75 359 q 64 370 57 386 q 50 402 50 420 z"},"$":{"x_min":0,"x_max":580,"ha":580,"o":"m 215 -2 q 158 7 105 31 q 53 54 17 88 l 65 158 q 71 166 81 172 q 92 178 103 178 q 115 178 128 171 q 140 165 155 156 q 170 147 187 138 q 204 128 227 122 l 246 312 q 210 322 174 335 q 138 348 110 372 q 82 394 64 430 q 46 466 46 519 q 46 558 62 596 q 78 634 109 664 q 140 694 184 713 q 230 732 288 735 l 293 790 q 294 804 306 816 q 316 827 334 827 l 391 827 l 381 728 q 435 718 474 696 q 513 674 540 648 l 502 593 q 494 580 485 575 q 476 569 464 569 q 456 569 446 572 q 436 576 424 581 q 412 586 398 592 q 384 598 369 603 l 352 426 q 376 418 400 410 q 424 402 446 391 q 468 380 487 366 q 506 352 521 334 q 535 314 543 290 q 551 265 551 234 q 551 186 535 144 q 519 102 488 70 q 457 38 412 18 q 367 -2 309 -6 l 303 -69 q 302 -83 290 -94 q 280 -106 262 -106 l 205 -106 z m 404 210 q 404 239 386 256 q 368 273 338 284 l 322 120 q 404 134 404 210 z m 192 534 q 192 504 211 486 q 230 468 260 456 l 275 606 q 252 603 236 596 q 220 590 211 580 q 201 570 196 559 q 192 547 192 534 z"},"?":{"x_min":0,"x_max":441,"ha":441,"o":"m 19 662 q 38 678 59 691 q 81 704 106 715 q 131 725 160 731 q 188 736 222 736 q 269 736 307 724 q 344 712 371 688 q 398 665 412 632 q 426 600 426 560 q 426 521 416 494 q 405 466 389 446 q 372 425 353 410 q 334 396 317 382 q 300 370 287 357 q 274 344 271 329 l 257 259 l 151 259 l 140 340 q 140 342 139 346 q 139 348 139 352 q 139 374 150 390 q 160 406 176 420 q 192 434 210 447 q 229 460 245 474 q 261 489 272 507 q 282 526 282 550 q 282 580 262 598 q 242 616 208 616 q 182 616 164 610 q 146 605 133 598 q 120 592 111 586 q 102 580 92 580 q 70 580 60 599 z m 111 78 q 111 96 118 112 q 124 128 136 139 q 148 150 164 157 q 180 164 199 164 q 218 164 234 157 q 250 150 262 139 q 274 128 280 112 q 287 96 287 78 q 287 60 280 45 q 274 29 262 18 q 250 6 234 0 q 218 -7 199 -7 q 180 -7 164 0 q 148 6 136 18 q 124 29 118 45 q 111 60 111 78 z"},"<":{"x_min":0,"x_max":580,"ha":580,"o":"m 65 368 l 470 580 l 470 472 q 470 460 464 451 q 458 441 445 434 l 303 358 q 290 350 276 346 q 261 341 245 337 q 261 333 276 329 q 290 324 303 318 l 445 240 q 458 234 464 224 q 470 214 470 203 l 470 96 l 65 307 z"},"'":{"x_min":0,"x_max":245,"ha":245,"o":"m 190 728 l 190 586 l 176 506 q 172 480 160 465 q 148 451 122 451 q 100 451 87 465 q 74 480 69 506 l 55 586 l 55 728 z"},"=":{"x_min":0,"x_max":580,"ha":580,"o":"m 62 300 l 517 300 l 517 188 l 62 188 z m 62 483 l 517 483 l 517 372 l 62 372 z"},"a":{"x_min":0,"x_max":539,"ha":539,"o":"m 418 0 q 396 0 385 6 q 374 12 366 31 l 355 60 q 336 43 318 30 q 300 18 280 9 q 261 0 239 -4 q 218 -8 191 -8 q 156 -8 126 1 q 98 10 77 28 q 57 46 46 73 q 35 100 35 135 q 35 162 49 192 q 63 220 98 244 q 132 268 190 284 q 249 300 338 302 l 338 324 q 338 370 319 390 q 300 410 266 410 q 238 410 221 404 q 204 398 190 390 q 176 383 163 377 q 150 371 132 371 q 116 371 105 379 q 94 386 87 398 l 59 446 q 106 488 163 508 q 220 528 286 528 q 333 528 371 513 q 408 498 435 471 q 461 444 475 406 q 489 368 489 324 l 489 0 z m 240 94 q 270 94 292 105 q 315 116 338 139 l 338 211 q 292 209 262 203 q 232 197 214 188 q 196 179 190 168 q 183 156 183 142 q 183 116 198 105 q 212 94 240 94 z"},"L":{"x_min":0,"x_max":519,"ha":519,"o":"m 229 135 l 499 135 l 499 0 l 60 0 l 60 728 l 229 728 z"},"3":{"x_min":0,"x_max":580,"ha":580,"o":"m 315 736 q 369 736 411 721 q 453 706 482 680 q 511 654 526 620 q 541 586 541 548 q 541 513 534 487 q 527 460 513 441 q 500 422 479 408 q 459 395 433 386 q 554 344 554 222 q 554 164 533 120 q 512 78 477 49 q 442 20 395 6 q 348 -8 298 -8 q 246 -8 206 3 q 165 14 134 38 q 102 62 78 99 q 54 136 37 187 l 106 215 q 115 219 124 220 q 132 222 141 222 q 157 222 170 216 q 182 210 189 198 q 212 156 237 137 q 262 118 296 118 q 322 118 341 127 q 360 136 373 150 q 386 164 392 181 q 399 198 399 216 q 399 240 396 259 q 392 278 378 291 q 362 304 332 312 q 302 319 248 319 l 248 426 q 294 426 322 433 q 350 440 365 452 q 380 464 385 482 q 390 500 390 520 q 390 564 369 587 q 348 610 306 610 q 288 610 274 605 q 260 600 248 592 q 236 583 228 572 q 220 560 215 546 q 207 524 195 514 q 182 504 162 504 q 156 504 151 504 q 145 505 139 506 l 57 520 q 65 575 88 616 q 110 656 144 683 q 178 710 222 723 q 265 736 315 736 z"},";":{"x_min":0,"x_max":276,"ha":276,"o":"m 54 88 q 54 104 60 118 q 66 132 77 142 q 88 152 104 158 q 119 164 138 164 q 160 164 177 156 q 194 148 204 135 q 216 122 221 105 q 226 88 226 68 q 226 44 218 15 q 210 -13 194 -42 q 178 -70 155 -98 q 132 -125 101 -148 l 74 -124 q 68 -118 66 -113 q 63 -108 63 -102 q 63 -96 66 -91 q 70 -85 75 -80 q 81 -74 89 -66 q 97 -58 105 -47 q 113 -36 120 -24 q 126 -12 130 2 q 112 4 98 11 q 84 18 75 30 q 65 41 60 56 q 54 70 54 88 z m 50 420 q 50 438 57 454 q 64 469 75 480 q 87 492 103 499 q 119 506 138 506 q 156 506 172 499 q 188 492 200 480 q 212 469 219 454 q 226 438 226 420 q 226 402 219 386 q 212 370 200 359 q 188 348 172 341 q 156 334 138 334 q 119 334 103 341 q 87 348 75 359 q 64 370 57 386 q 50 402 50 420 z"},"J":{"x_min":0,"x_max":430,"ha":430,"o":"m 370 264 q 370 203 355 153 q 340 103 309 67 q 278 32 232 12 q 185 -8 122 -8 q 94 -8 66 -5 q 38 -2 8 5 l 17 104 q 18 116 27 124 q 36 132 53 132 q 62 132 74 130 q 86 127 104 127 q 128 127 147 134 q 165 140 177 156 q 189 172 195 198 q 201 223 201 260 l 201 728 l 370 728 z"},"V":{"x_min":0,"x_max":737,"ha":737,"o":"m 0 728 l 136 728 q 158 728 172 718 q 186 708 192 692 l 333 302 q 342 276 352 246 q 362 216 370 184 q 378 216 387 246 q 396 276 405 302 l 545 692 q 550 706 564 717 q 579 728 600 728 l 737 728 l 445 0 l 292 0 z"},"\"":{"x_min":0,"x_max":445,"ha":445,"o":"m 190 728 l 190 586 l 176 506 q 172 480 160 465 q 148 451 122 451 q 100 451 87 465 q 74 480 69 506 l 55 586 l 55 728 z m 390 728 l 390 586 l 376 506 q 372 480 360 465 q 348 451 322 451 q 300 451 287 465 q 274 480 269 506 l 255 586 l 255 728 z"},"7":{"x_min":0,"x_max":580,"ha":580,"o":"m 553 728 l 553 664 q 553 636 547 619 q 541 602 536 590 l 281 51 q 271 30 252 15 q 232 0 200 0 l 87 0 l 347 522 q 358 543 370 560 q 382 577 396 592 l 76 592 q 69 592 63 595 q 56 598 52 603 q 47 608 44 614 q 41 620 41 626 l 41 728 z"},"S":{"x_min":0,"x_max":542,"ha":542,"o":"m 466 580 q 458 568 450 562 q 442 556 429 556 q 418 556 404 564 q 391 571 374 580 q 358 589 336 596 q 314 604 287 604 q 240 604 216 583 q 193 563 193 528 q 193 506 207 492 q 221 478 244 467 q 266 456 296 448 q 325 439 356 428 q 386 418 415 403 q 444 388 467 366 q 490 344 504 311 q 518 279 518 234 q 518 183 500 139 q 483 95 450 62 q 416 30 368 11 q 319 -8 257 -8 q 223 -8 188 -1 q 152 6 120 19 q 86 32 58 49 q 28 66 7 88 l 57 167 q 62 176 72 182 q 82 187 94 187 q 109 187 124 178 q 140 168 159 156 q 178 145 203 136 q 228 126 262 126 q 308 126 334 146 q 359 166 359 210 q 359 236 345 252 q 331 268 308 278 q 286 289 256 297 q 228 305 197 315 q 166 324 138 339 q 108 353 86 376 q 63 400 49 434 q 35 469 35 520 q 35 561 52 600 q 68 639 100 670 q 132 700 178 718 q 225 736 285 736 q 318 736 350 731 q 382 726 410 716 q 439 706 464 691 q 488 677 508 659 z"},"}":{"x_min":0,"x_max":300,"ha":300,"o":"m 240 198 q 240 176 243 154 q 246 132 249 109 q 252 86 255 64 q 258 40 258 18 q 258 -23 246 -56 q 234 -89 210 -113 q 185 -136 147 -149 q 109 -162 56 -162 l 30 -162 l 30 -95 q 30 -87 34 -82 q 37 -76 42 -72 q 47 -69 52 -67 q 58 -66 62 -66 q 94 -66 108 -46 q 123 -26 123 8 q 123 36 121 60 q 118 84 116 107 q 114 130 111 152 q 109 174 109 196 q 109 215 114 233 q 119 250 129 265 q 140 280 154 291 q 169 302 188 308 q 169 314 154 325 q 140 336 129 351 q 119 366 114 384 q 109 401 109 420 q 109 442 111 464 q 114 486 116 509 q 118 532 121 556 q 123 581 123 608 q 123 643 108 662 q 94 682 62 682 q 58 682 52 684 q 47 686 42 689 q 37 692 34 698 q 30 704 30 712 l 30 778 l 56 778 q 109 778 147 766 q 185 753 210 730 q 234 706 246 673 q 258 640 258 599 q 258 576 255 553 q 252 530 249 508 q 246 485 243 462 q 240 440 240 418 q 240 404 243 391 q 246 379 252 370 q 258 362 268 356 q 278 352 293 352 l 293 265 q 263 265 252 247 q 240 228 240 198 z"},"Z":{"x_min":0,"x_max":610,"ha":610,"o":"m 593 728 l 593 668 q 593 654 589 642 q 584 630 577 618 l 235 130 l 582 130 l 582 0 l 20 0 l 20 65 q 20 76 24 88 q 28 99 35 108 l 378 598 l 48 598 l 48 728 z"},"x":{"x_min":0,"x_max":573,"ha":573,"o":"m 184 268 l 17 518 l 166 518 q 182 518 190 514 q 198 510 204 500 l 296 346 q 300 356 304 364 q 308 372 314 382 l 380 498 q 386 509 394 514 q 402 518 414 518 l 556 518 l 389 275 l 563 0 l 414 0 q 398 0 388 8 q 378 16 371 27 l 278 186 q 276 178 272 170 q 269 162 265 156 l 189 27 q 183 16 173 8 q 163 0 148 0 l 10 0 z"},")":{"x_min":0,"x_max":300,"ha":300,"o":"m 126 313 q 126 362 120 413 q 115 463 104 512 q 93 560 77 607 q 61 653 40 694 q 36 702 34 709 q 32 716 32 721 q 32 732 39 740 q 46 748 54 753 l 123 793 q 196 680 228 560 q 260 441 260 313 q 260 184 228 65 q 196 -54 123 -166 l 54 -126 q 45 -121 38 -114 q 32 -106 32 -94 q 32 -82 39 -68 q 60 -26 76 20 q 92 66 103 115 q 114 164 120 214 q 126 264 126 313 z"},"&":{"x_min":0,"x_max":723,"ha":723,"o":"m 332 736 q 380 736 418 722 q 454 708 480 685 q 506 662 520 631 q 534 600 538 568 l 438 548 q 436 548 434 548 q 432 548 430 548 q 409 548 399 570 q 388 596 372 609 q 357 622 332 622 q 314 622 302 616 q 288 610 280 599 q 271 588 266 574 q 262 560 262 546 q 262 532 264 520 q 266 508 272 496 q 277 484 286 471 q 296 458 310 443 l 490 253 q 504 283 512 316 q 520 348 523 383 q 524 397 532 405 q 540 413 554 413 l 652 413 q 652 340 632 277 q 613 214 577 161 l 730 0 l 577 0 q 566 0 556 1 q 548 2 540 6 q 532 8 525 14 q 518 20 510 28 l 478 61 q 431 28 375 10 q 318 -8 255 -8 q 212 -8 170 7 q 128 22 96 50 q 63 78 43 117 q 23 156 23 206 q 23 238 33 268 q 44 298 62 323 q 80 348 106 369 q 132 390 162 405 q 139 442 128 476 q 118 512 118 544 q 118 584 132 618 q 146 653 174 679 q 201 706 241 721 q 280 736 332 736 z m 181 218 q 181 194 188 174 q 196 155 209 141 q 222 127 241 119 q 260 112 283 112 q 316 112 345 120 q 374 129 399 145 l 232 322 q 204 300 192 274 q 181 247 181 218 z"},"_":{"x_min":0,"x_max":394,"ha":394,"o":"m 394 -54 l 394 -151 l 0 -151 l 0 -54 z"},"v":{"x_min":0,"x_max":553,"ha":553,"o":"m 347 0 l 206 0 l 5 518 l 134 518 q 150 518 162 511 q 173 503 177 492 l 249 259 q 258 230 265 204 q 273 176 278 150 q 284 176 292 204 q 300 230 309 259 l 384 492 q 388 503 399 511 q 410 518 425 518 l 548 518 z"},"O":{"x_min":0,"x_max":800,"ha":800,"o":"m 779 364 q 779 286 752 218 q 724 150 675 99 q 626 49 556 20 q 486 -8 401 -8 q 316 -8 246 20 q 176 49 126 99 q 76 150 49 218 q 22 286 22 364 q 22 444 49 512 q 76 580 126 630 q 176 680 246 708 q 316 736 401 736 q 486 736 556 708 q 626 679 675 629 q 724 579 752 511 q 779 443 779 364 z m 606 364 q 606 418 592 462 q 578 505 552 535 q 526 565 488 581 q 450 597 401 597 q 352 597 314 581 q 276 565 249 535 q 223 505 209 462 q 195 418 195 364 q 195 310 209 267 q 223 224 249 194 q 276 164 314 148 q 352 132 401 132 q 450 132 488 148 q 526 164 552 194 q 578 224 592 267 q 606 310 606 364 z"},"(":{"x_min":0,"x_max":300,"ha":300,"o":"m 174 313 q 174 264 180 214 q 186 164 197 115 q 208 66 224 20 q 240 -26 261 -68 q 268 -82 268 -94 q 268 -106 262 -114 q 255 -121 246 -126 l 177 -166 q 140 -110 114 -52 q 88 6 72 65 q 56 125 48 187 q 40 249 40 313 q 40 377 48 439 q 56 501 72 561 q 88 620 114 678 q 140 736 177 793 l 246 753 q 254 748 261 740 q 268 732 268 721 q 268 716 266 709 q 264 702 260 694 q 239 653 223 607 q 207 560 196 512 q 185 463 180 413 q 174 362 174 313 z"},"C":{"x_min":0,"x_max":657,"ha":657,"o":"m 550 188 q 556 188 562 186 q 568 184 573 178 l 640 108 q 596 50 530 21 q 464 -8 373 -8 q 290 -8 224 20 q 158 48 113 98 q 67 148 42 216 q 18 284 18 364 q 18 446 46 514 q 74 582 124 632 q 174 682 244 709 q 314 736 399 736 q 440 736 476 729 q 512 722 544 709 q 576 696 602 679 q 628 661 649 640 l 592 563 q 586 556 579 550 q 572 544 558 544 q 549 544 541 548 q 533 552 524 558 q 515 564 504 571 q 494 578 479 583 q 464 589 444 593 q 424 597 398 597 q 352 597 314 581 q 276 564 249 534 q 222 504 206 461 q 191 418 191 364 q 191 308 206 265 q 222 222 248 192 q 274 162 309 146 q 344 131 384 131 q 407 131 426 133 q 445 136 461 141 q 478 146 492 155 q 507 164 522 177 q 528 182 535 185 q 542 188 550 188 z"},"W":{"x_min":0,"x_max":1071,"ha":1071,"o":"m 5 728 l 147 728 q 169 728 184 718 q 198 708 203 692 l 303 312 q 308 294 313 272 q 318 252 320 228 q 326 252 332 273 q 338 294 343 312 l 461 692 q 466 706 480 717 q 495 728 516 728 l 566 728 q 588 728 602 719 q 616 709 622 692 l 739 312 q 744 294 750 275 q 756 255 761 232 q 765 254 769 274 q 774 294 778 312 l 878 692 q 882 706 897 718 q 912 728 933 728 l 1066 728 l 841 0 l 688 0 l 551 452 q 548 462 544 474 q 540 487 536 501 q 533 487 529 474 q 526 462 522 452 l 383 0 l 230 0 z"},"A":{"x_min":0,"x_max":737,"ha":737,"o":"m 738 0 l 607 0 q 585 0 571 10 q 556 20 551 36 l 508 164 l 231 164 l 188 36 q 183 22 168 11 q 154 0 133 0 l 1 0 l 283 728 l 456 728 z m 270 278 l 469 278 l 402 478 q 396 497 387 523 q 378 548 370 578 q 362 548 353 522 q 344 496 337 477 z"},"f":{"x_min":0,"x_max":362,"ha":362,"o":"m 83 0 l 83 412 l 49 419 q 32 423 21 432 q 10 440 10 456 l 10 518 l 83 518 l 83 547 q 83 592 97 628 q 112 664 138 689 q 165 714 204 728 q 242 742 291 742 q 310 742 326 740 q 342 738 360 733 l 357 658 q 356 650 353 644 q 349 639 344 636 q 338 632 331 631 q 324 630 318 630 q 298 630 282 626 q 266 622 255 611 q 244 601 238 584 q 233 568 233 542 l 233 518 l 355 518 l 355 412 l 238 412 l 238 0 z"},"Q":{"x_min":0,"x_max":800,"ha":800,"o":"m 779 364 q 779 318 769 274 q 760 231 741 193 q 723 155 696 122 q 670 90 636 65 l 820 -136 l 681 -136 q 651 -136 626 -129 q 602 -122 583 -100 l 492 2 q 470 -3 448 -6 q 425 -8 401 -8 q 316 -8 246 20 q 176 49 126 99 q 76 150 49 218 q 22 286 22 364 q 22 444 49 512 q 76 580 126 630 q 176 680 246 708 q 316 736 401 736 q 486 736 556 708 q 626 679 675 629 q 724 579 752 511 q 779 443 779 364 z m 606 364 q 606 418 592 462 q 578 505 552 535 q 526 565 488 581 q 450 597 401 597 q 352 597 314 581 q 276 565 249 535 q 223 505 209 462 q 195 418 195 364 q 195 310 209 267 q 223 224 249 194 q 276 164 314 148 q 352 132 401 132 q 450 132 488 148 q 526 164 552 194 q 578 224 592 267 q 606 310 606 364 z"},"w":{"x_min":0,"x_max":813,"ha":813,"o":"m 0 518 l 124 518 q 140 518 152 511 q 164 504 167 492 l 219 259 q 225 232 230 208 q 235 182 239 158 q 246 182 254 207 q 262 232 269 259 l 334 492 q 337 504 348 511 q 360 519 375 519 l 444 519 q 460 519 472 511 q 484 504 487 492 l 549 259 q 556 232 563 208 q 570 182 577 157 q 581 182 587 207 q 592 232 599 259 l 654 492 q 656 504 668 511 q 680 518 695 518 l 813 518 l 652 0 l 526 0 q 516 0 509 6 q 502 12 498 26 l 424 284 q 419 302 414 319 q 410 336 406 353 q 403 336 399 318 q 394 301 389 284 l 314 26 q 306 0 281 0 l 161 0 z"},"-":{"x_min":0,"x_max":370,"ha":370,"o":"m 50 366 l 320 366 l 320 242 l 50 242 z"},"E":{"x_min":0,"x_max":565,"ha":565,"o":"m 529 728 l 529 598 l 230 598 l 230 428 l 459 428 l 459 304 l 230 304 l 230 130 l 529 130 l 529 0 l 60 0 l 60 728 z"},"s":{"x_min":0,"x_max":440,"ha":440,"o":"m 377 405 q 371 396 364 392 q 358 388 347 388 q 336 388 325 392 q 314 397 301 402 q 288 408 272 413 q 256 418 236 418 q 206 418 191 406 q 175 395 175 375 q 175 360 185 351 q 196 342 212 334 q 230 327 251 320 q 272 314 295 306 q 318 298 339 287 q 360 276 378 261 q 394 245 405 222 q 415 200 415 168 q 415 130 401 98 q 387 65 359 42 q 332 18 291 5 q 250 -8 197 -8 q 170 -8 144 -3 q 118 2 93 10 q 68 19 47 31 q 26 42 11 56 l 47 113 q 54 123 62 129 q 72 134 86 134 q 100 134 110 128 q 121 122 134 116 q 146 108 163 102 q 180 96 205 96 q 223 96 236 100 q 248 104 256 110 q 263 117 266 125 q 270 133 270 142 q 270 157 260 167 q 249 177 232 184 q 215 192 193 198 q 172 204 149 212 q 126 220 105 231 q 83 242 66 260 q 49 277 38 302 q 28 327 28 362 q 28 396 41 425 q 54 455 79 478 q 104 500 143 513 q 182 526 233 526 q 261 526 287 522 q 314 516 336 508 q 360 498 378 486 q 398 474 412 460 z"},">":{"x_min":0,"x_max":580,"ha":580,"o":"m 515 307 l 110 96 l 110 203 q 110 214 116 224 q 122 234 135 240 l 277 318 q 290 324 304 329 q 319 333 335 337 q 319 341 304 346 q 290 350 277 358 l 135 434 q 122 441 116 451 q 110 460 110 472 l 110 580 l 515 368 z"},"l":{"x_min":0,"x_max":285,"ha":285,"o":"m 220 748 l 220 0 l 65 0 l 65 748 z"},"8":{"x_min":0,"x_max":580,"ha":580,"o":"m 290 -8 q 232 -8 184 8 q 136 23 102 51 q 68 80 49 120 q 30 160 30 208 q 30 238 37 264 q 44 290 58 312 q 73 334 96 351 q 120 368 152 380 q 102 402 78 442 q 54 482 54 538 q 54 580 72 617 q 89 653 120 680 q 152 706 195 721 q 238 736 290 736 q 342 736 385 721 q 428 706 460 680 q 491 653 508 617 q 526 580 526 538 q 526 482 502 442 q 477 402 428 380 q 460 368 483 351 q 506 334 521 312 q 536 290 543 264 q 550 238 550 208 q 550 160 531 120 q 512 80 478 51 q 444 23 396 8 q 348 -8 290 -8 z m 290 109 q 316 109 335 117 q 354 125 366 139 q 378 152 384 171 q 390 190 390 212 q 390 235 385 254 q 380 274 368 288 q 357 302 338 309 q 318 317 290 317 q 262 317 242 309 q 223 302 212 288 q 200 274 195 254 q 190 235 190 212 q 190 190 196 171 q 202 152 214 139 q 226 125 245 117 q 264 109 290 109 z m 290 435 q 316 435 332 444 q 349 452 358 466 q 368 480 372 498 q 375 516 375 535 q 375 552 370 568 q 366 584 356 596 q 346 608 329 616 q 313 624 290 624 q 266 624 250 616 q 234 608 224 596 q 214 584 210 568 q 205 552 205 535 q 205 516 208 498 q 212 480 222 466 q 231 452 248 444 q 264 435 290 435 z"},"\\":{"x_min":0,"x_max":404,"ha":404,"o":"m -18 748 l 48 748 q 75 748 96 735 q 116 722 126 696 l 410 -50 l 344 -50 q 332 -50 320 -46 q 308 -42 297 -36 q 286 -28 277 -18 q 268 -8 263 6 z"},"e":{"x_min":0,"x_max":544,"ha":544,"o":"m 282 526 q 334 526 376 510 q 419 494 450 464 q 480 434 498 389 q 515 345 515 289 q 515 272 514 260 q 512 250 508 243 q 504 236 497 234 q 490 232 480 232 l 181 232 q 188 166 220 137 q 252 108 303 108 q 330 108 350 114 q 369 121 384 129 q 400 137 412 144 q 425 150 439 150 q 458 150 467 136 l 512 81 q 488 54 460 36 q 432 19 403 9 q 374 0 345 -4 q 316 -8 289 -8 q 234 -8 187 10 q 139 28 103 62 q 68 98 47 150 q 26 202 26 270 q 26 322 44 369 q 62 416 95 450 q 128 486 175 506 q 222 526 282 526 z m 285 420 q 240 420 216 394 q 190 369 182 322 l 376 322 q 376 340 371 358 q 366 375 356 389 q 345 402 328 411 q 310 420 285 420 z"},"b":{"x_min":0,"x_max":580,"ha":580,"o":"m 60 0 l 60 748 l 215 748 l 215 464 q 244 492 281 509 q 318 526 367 526 q 408 526 442 509 q 476 492 502 458 q 526 424 541 375 q 555 326 555 264 q 555 205 539 156 q 522 106 493 70 q 464 33 423 12 q 382 -8 333 -8 q 310 -8 292 -4 q 274 1 258 9 q 243 18 230 29 q 218 40 206 54 l 200 28 q 196 12 187 6 q 178 0 163 0 z m 313 410 q 296 410 282 407 q 268 404 257 398 q 245 392 235 382 q 225 373 215 361 l 215 141 q 232 122 253 114 q 274 106 296 106 q 318 106 336 114 q 354 123 367 142 q 380 160 388 190 q 395 220 395 264 q 395 304 389 332 q 383 360 372 378 q 362 395 346 402 q 332 410 313 410 z"},"%":{"x_min":0,"x_max":818,"ha":818,"o":"m 374 552 q 374 512 360 479 q 345 446 321 422 q 297 398 265 386 q 234 372 199 372 q 161 372 129 386 q 98 398 74 422 q 51 446 38 479 q 25 512 25 552 q 25 594 38 627 q 51 661 74 685 q 98 709 129 722 q 161 736 199 736 q 237 736 269 722 q 302 709 325 685 q 348 661 361 627 q 374 594 374 552 z m 255 552 q 255 578 251 594 q 246 611 239 621 q 232 631 221 635 q 211 639 199 639 q 187 639 177 635 q 167 631 160 621 q 153 611 149 594 q 145 578 145 552 q 145 528 149 512 q 153 496 160 486 q 167 477 177 473 q 187 469 199 469 q 211 469 221 473 q 232 477 239 486 q 246 496 251 512 q 255 528 255 552 z m 603 706 q 610 714 622 721 q 632 728 652 728 l 765 728 l 216 22 q 208 12 197 6 q 186 0 170 0 l 54 0 z m 793 171 q 793 131 778 98 q 764 64 740 41 q 716 17 684 4 q 652 -9 618 -9 q 580 -9 548 4 q 516 17 493 41 q 470 64 457 98 q 444 131 444 171 q 444 212 457 246 q 470 280 493 304 q 516 328 548 341 q 580 354 618 354 q 656 354 688 341 q 720 328 744 304 q 767 280 780 246 q 793 212 793 171 z m 674 171 q 674 196 670 213 q 666 230 658 240 q 650 250 640 254 q 630 258 618 258 q 606 258 596 254 q 586 250 579 240 q 572 230 568 213 q 564 196 564 171 q 564 147 568 131 q 572 115 579 106 q 586 96 596 92 q 606 88 618 88 q 630 88 640 92 q 650 96 658 106 q 666 115 670 131 q 674 147 674 171 z"},"m":{"x_min":0,"x_max":861,"ha":861,"o":"m 60 0 l 60 518 l 156 518 q 170 518 180 512 q 190 506 194 492 l 202 464 q 216 478 230 489 q 244 500 260 509 q 276 517 295 522 q 314 526 336 526 q 383 526 414 502 q 444 478 460 438 q 474 462 492 478 q 511 496 533 506 q 554 516 579 522 q 603 526 627 526 q 672 526 706 513 q 740 500 764 475 q 787 450 799 413 q 811 376 811 330 l 811 0 l 656 0 l 656 330 q 656 410 587 410 q 556 410 535 389 q 514 368 514 330 l 514 0 l 359 0 l 359 330 q 359 374 342 392 q 324 410 290 410 q 269 410 250 400 q 232 391 215 375 l 215 0 z"},"#":{"x_min":0,"x_max":580,"ha":580,"o":"m 431 198 l 396 0 l 324 0 q 314 0 306 4 q 298 8 292 15 q 286 22 282 31 q 279 40 279 50 q 279 53 279 56 q 280 59 280 62 l 304 198 l 222 198 l 197 54 q 194 40 188 29 q 182 19 172 12 q 162 6 151 3 q 140 0 128 0 l 59 0 l 94 198 l 50 198 q 31 198 20 207 q 10 216 10 238 q 10 242 10 248 q 11 252 12 258 l 20 306 l 108 306 l 130 424 l 30 424 l 42 487 q 46 510 62 521 q 77 532 110 532 l 144 532 l 170 678 q 174 702 192 715 q 211 728 235 728 l 306 728 l 271 532 l 354 532 l 389 728 l 458 728 q 480 728 494 716 q 508 704 508 686 q 508 684 508 682 q 508 680 507 678 l 481 532 l 578 532 l 566 469 q 562 446 546 435 q 531 424 498 424 l 466 424 l 446 306 l 500 306 q 519 306 530 297 q 540 288 540 266 q 540 261 540 256 q 539 251 538 246 l 530 198 z m 236 306 l 318 306 l 340 424 l 256 424 z"},",":{"x_min":0,"x_max":236,"ha":236,"o":"m 34 88 q 34 104 40 118 q 46 132 57 142 q 68 152 84 158 q 99 164 118 164 q 140 164 157 156 q 174 148 184 135 q 196 122 201 105 q 206 88 206 68 q 206 44 198 15 q 190 -13 174 -42 q 158 -70 135 -98 q 112 -125 81 -148 l 54 -124 q 48 -118 46 -113 q 43 -108 43 -102 q 43 -96 46 -91 q 50 -85 55 -80 q 61 -74 69 -66 q 77 -58 85 -47 q 93 -36 100 -24 q 106 -12 110 2 q 92 4 78 11 q 64 18 55 30 q 45 41 40 56 q 34 70 34 88 z"},"n":{"x_min":0,"x_max":580,"ha":580,"o":"m 60 0 l 60 518 l 156 518 q 170 518 180 512 q 190 506 194 492 l 203 462 q 218 476 234 488 q 250 500 268 509 q 286 517 308 522 q 329 526 354 526 q 396 526 429 512 q 462 497 484 471 q 507 444 518 408 q 530 372 530 330 l 530 0 l 375 0 l 375 330 q 375 368 358 389 q 340 410 306 410 q 280 410 258 399 q 236 388 215 370 l 215 0 z"},"h":{"x_min":0,"x_max":580,"ha":580,"o":"m 60 0 l 60 748 l 215 748 l 215 473 q 243 497 276 512 q 308 526 354 526 q 396 526 429 512 q 462 497 484 471 q 507 444 518 408 q 530 372 530 330 l 530 0 l 375 0 l 375 330 q 375 368 358 389 q 340 410 306 410 q 280 410 258 399 q 236 388 215 370 l 215 0 z"},"z":{"x_min":0,"x_max":477,"ha":477,"o":"m 447 456 q 447 440 441 426 q 435 412 427 401 l 210 115 l 442 115 l 442 0 l 32 0 l 32 63 q 32 72 37 87 q 42 101 52 114 l 270 404 l 46 404 l 46 518 l 447 518 z"},"B":{"x_min":0,"x_max":656,"ha":656,"o":"m 60 0 l 60 728 l 328 728 q 404 728 456 714 q 510 700 543 675 q 576 650 592 613 q 607 576 607 532 q 607 507 600 484 q 593 462 578 442 q 563 422 540 405 q 516 389 483 377 q 555 360 590 320 q 624 281 624 220 q 624 173 606 133 q 588 93 553 63 q 518 34 468 17 q 416 0 351 0 z m 229 309 l 229 128 l 348 128 q 382 128 403 136 q 424 144 436 158 q 448 172 452 188 q 457 206 457 223 q 457 243 452 259 q 446 275 434 286 q 421 297 400 303 q 379 309 347 309 z m 229 422 l 317 422 q 345 422 368 426 q 390 430 406 440 q 422 450 430 468 q 438 485 438 512 q 438 538 432 555 q 425 572 412 582 q 398 593 377 598 q 356 602 328 602 l 229 602 z"},"K":{"x_min":0,"x_max":714,"ha":714,"o":"m 229 434 l 256 434 q 294 434 310 457 l 474 695 q 488 714 505 722 q 522 728 547 728 l 694 728 l 478 434 q 466 418 454 408 q 442 397 428 390 q 448 383 463 371 q 479 358 492 338 l 712 0 l 561 0 q 546 0 536 2 q 526 4 518 8 q 511 12 506 18 q 500 24 495 31 l 330 284 q 321 298 307 304 q 294 310 270 310 l 229 310 l 229 0 l 60 0 l 60 728 l 229 728 z"},"R":{"x_min":0,"x_max":665,"ha":665,"o":"m 229 270 l 229 0 l 60 0 l 60 728 l 297 728 q 376 728 432 712 q 488 696 523 667 q 558 638 574 598 q 590 559 590 512 q 590 477 580 446 q 571 414 552 387 q 534 360 506 340 q 479 318 444 305 q 460 296 475 284 q 490 272 501 254 l 656 0 l 503 0 q 460 0 442 32 l 321 244 q 313 258 302 264 q 292 270 272 270 z m 229 386 l 297 386 q 332 386 356 395 q 380 404 396 419 q 411 434 418 455 q 425 476 425 500 q 425 548 394 575 q 362 602 297 602 l 229 602 z"},"T":{"x_min":0,"x_max":599,"ha":599,"o":"m 589 728 l 589 594 l 384 594 l 384 0 l 215 0 l 215 594 l 10 594 l 10 728 z"},"P":{"x_min":0,"x_max":638,"ha":638,"o":"m 229 244 l 229 0 l 60 0 l 60 728 l 317 728 q 394 728 449 710 q 504 692 540 660 q 576 628 593 584 q 610 541 610 490 q 610 436 592 390 q 575 345 539 312 q 503 280 448 262 q 392 244 317 244 z m 229 371 l 317 371 q 383 371 412 402 q 441 434 441 490 q 441 516 434 536 q 426 556 411 571 q 396 586 372 594 q 349 602 317 602 l 229 602 z"},"|":{"x_min":0,"x_max":300,"ha":300,"o":"m 90 778 l 210 778 l 210 -164 l 90 -164 z"},"t":{"x_min":0,"x_max":400,"ha":400,"o":"m 242 -8 q 205 -8 177 3 q 148 14 129 33 q 110 53 100 81 q 90 109 90 144 l 90 412 l 46 412 q 34 412 26 419 q 17 427 17 442 l 17 502 l 100 518 l 130 645 q 136 669 164 669 l 245 669 l 245 518 l 371 518 l 371 412 l 245 412 l 245 154 q 245 136 254 124 q 262 112 279 112 q 288 112 293 114 q 299 116 303 118 q 308 120 311 122 q 315 124 320 124 q 327 124 331 121 q 336 118 340 110 l 387 37 q 357 14 320 3 q 282 -8 242 -8 z"},"M":{"x_min":0,"x_max":939,"ha":939,"o":"m 432 333 q 442 314 452 294 q 461 273 470 252 q 478 274 488 294 q 497 315 507 334 l 694 702 q 699 712 704 717 q 710 722 716 725 q 722 728 731 728 q 739 728 750 728 l 879 728 l 879 0 l 730 0 l 730 419 q 730 450 733 485 l 540 110 q 531 93 516 84 q 500 75 481 75 l 458 75 q 438 75 423 84 q 408 93 399 110 l 205 486 q 207 468 208 451 q 209 434 209 419 l 209 0 l 60 0 l 60 728 l 189 728 q 200 728 208 728 q 216 728 223 725 q 230 722 235 717 q 240 712 245 702 l 432 333 z"},"g":{"x_min":0,"x_max":523,"ha":523,"o":"m 243 528 q 276 528 305 521 q 334 514 360 502 l 516 502 l 516 446 q 516 433 509 426 q 502 418 484 414 l 446 406 q 453 383 453 359 q 453 320 437 289 q 420 258 392 236 q 364 214 326 203 q 287 191 243 191 q 218 191 197 194 q 180 184 180 171 q 180 158 194 152 q 208 146 230 144 q 252 142 282 141 q 310 140 340 138 q 370 135 400 128 q 428 122 451 108 q 474 93 487 69 q 501 44 501 7 q 501 -28 484 -62 q 467 -95 434 -121 q 401 -147 353 -163 q 305 -178 243 -178 q 182 -178 138 -167 q 94 -156 64 -137 q 35 -118 21 -94 q 7 -69 7 -42 q 7 -8 28 16 q 49 40 86 53 q 68 64 58 82 q 47 100 47 128 q 47 140 51 152 q 55 165 64 177 q 72 189 85 200 q 98 211 116 220 q 76 241 52 276 q 29 312 29 359 q 29 398 46 429 q 62 460 91 482 q 120 504 158 516 q 198 528 243 528 z m 358 -19 q 358 -6 350 1 q 342 8 329 13 q 316 18 298 20 q 280 22 260 22 q 240 24 218 24 q 196 25 174 28 q 160 18 150 5 q 141 -7 141 -22 q 141 -34 146 -42 q 150 -52 162 -58 q 174 -64 195 -68 q 215 -72 246 -72 q 280 -72 301 -68 q 322 -64 335 -57 q 348 -50 353 -40 q 358 -30 358 -19 z m 243 286 q 282 286 299 306 q 316 325 316 356 q 316 387 299 405 q 282 423 243 423 q 204 423 187 405 q 170 387 170 356 q 170 340 174 328 q 178 316 188 306 q 196 297 210 292 q 224 286 243 286 z"},"j":{"x_min":0,"x_max":283,"ha":283,"o":"m 220 518 l 220 -1 q 220 -38 211 -70 q 202 -102 180 -126 q 159 -150 124 -164 q 90 -178 38 -178 q 19 -178 3 -176 q -14 -174 -31 -170 l -26 -88 q -25 -78 -19 -72 q -13 -68 5 -68 q 23 -68 34 -64 q 46 -62 53 -54 q 60 -46 62 -34 q 65 -21 65 -1 l 65 518 z m 238 660 q 238 642 230 626 q 223 610 210 597 q 197 585 180 578 q 162 570 143 570 q 124 570 108 578 q 91 585 78 597 q 66 610 58 626 q 51 642 51 660 q 51 680 58 696 q 66 712 78 725 q 91 738 108 744 q 124 752 143 752 q 162 752 180 744 q 197 738 210 725 q 223 712 230 696 q 238 680 238 660 z"},"i":{"x_min":0,"x_max":285,"ha":285,"o":"m 220 518 l 220 0 l 65 0 l 65 518 z m 238 660 q 238 642 230 626 q 223 610 210 597 q 197 585 180 578 q 162 570 143 570 q 124 570 108 578 q 91 585 78 597 q 66 610 58 626 q 51 642 51 660 q 51 680 58 696 q 66 712 78 725 q 91 738 108 744 q 124 752 143 752 q 162 752 180 744 q 197 738 210 725 q 223 712 230 696 q 238 680 238 660 z"},"y":{"x_min":0,"x_max":553,"ha":553,"o":"m 272 -134 q 265 -150 255 -157 q 245 -164 223 -164 l 107 -164 l 207 46 l 0 518 l 137 518 q 155 518 165 510 q 175 502 179 492 l 264 268 q 276 237 284 206 q 288 222 294 238 q 300 253 306 269 l 383 492 q 387 503 399 511 q 410 518 424 518 l 549 518 z"},"@":{"x_min":0,"x_max":823,"ha":823,"o":"m 583 91 q 567 91 552 94 q 537 98 524 105 q 510 112 500 124 q 489 136 482 152 q 452 120 420 106 q 388 92 350 92 q 318 92 293 103 q 268 114 252 134 q 236 154 227 182 q 219 209 219 242 q 219 270 226 300 q 234 329 248 356 q 262 384 285 408 q 307 432 337 450 q 367 468 405 478 q 444 488 490 488 q 512 488 530 487 q 548 485 564 482 q 579 479 593 474 q 606 470 621 464 l 572 274 q 564 244 564 227 q 564 202 576 192 q 587 183 606 183 q 624 183 640 196 q 656 208 667 231 q 678 254 685 284 q 692 314 692 350 q 692 412 674 460 q 655 507 621 539 q 586 571 538 588 q 490 604 431 604 q 366 604 312 580 q 258 556 220 514 q 180 472 159 417 q 137 361 137 298 q 137 218 161 157 q 186 96 228 56 q 271 16 330 -5 q 388 -25 457 -25 q 496 -25 530 -21 q 563 -16 590 -10 q 617 -3 638 6 q 659 14 674 22 q 685 28 694 28 q 712 28 719 10 l 740 -44 q 715 -60 685 -74 q 654 -88 619 -99 q 584 -110 544 -115 q 503 -121 457 -121 q 363 -121 284 -92 q 205 -62 147 -8 q 90 46 57 124 q 25 202 25 298 q 25 350 39 400 q 53 451 79 496 q 105 540 142 578 q 178 615 223 642 q 268 670 320 684 q 373 700 431 700 q 480 700 526 688 q 572 678 613 656 q 654 636 689 605 q 724 574 749 536 q 774 497 788 450 q 802 404 802 350 q 802 297 786 250 q 770 202 740 167 q 711 132 671 112 q 630 91 583 91 z m 381 187 q 392 187 403 190 q 414 194 423 202 q 432 210 440 224 q 448 238 453 258 l 488 394 q 476 396 464 396 q 439 396 416 384 q 393 372 376 351 q 358 330 348 303 q 338 276 338 246 q 338 216 349 202 q 360 187 381 187 z"},".":{"x_min":0,"x_max":236,"ha":236,"o":"m 30 78 q 30 96 37 112 q 44 128 55 139 q 67 150 83 157 q 99 164 118 164 q 136 164 152 157 q 168 150 180 139 q 192 128 199 112 q 206 96 206 78 q 206 60 199 45 q 192 29 180 18 q 168 6 152 0 q 136 -7 118 -7 q 99 -7 83 0 q 67 6 55 18 q 44 29 37 45 q 30 60 30 78 z"},"p":{"x_min":0,"x_max":578,"ha":578,"o":"m 60 -164 l 60 518 l 156 518 q 170 518 180 512 q 190 506 194 492 l 206 454 q 220 471 238 484 q 255 498 275 508 q 294 518 317 523 q 340 528 367 528 q 408 528 442 510 q 476 492 502 458 q 526 424 541 375 q 555 326 555 264 q 555 205 539 156 q 522 106 493 70 q 464 33 423 12 q 382 -8 333 -8 q 292 -8 265 4 q 238 15 215 34 l 215 -164 z m 313 410 q 296 410 282 407 q 268 404 257 398 q 245 392 235 382 q 225 373 215 361 l 215 141 q 232 122 253 114 q 274 106 296 106 q 318 106 336 114 q 354 123 367 142 q 380 160 388 190 q 395 220 395 264 q 395 304 389 332 q 383 360 372 378 q 362 395 346 402 q 332 410 313 410 z"},"X":{"x_min":0,"x_max":712,"ha":712,"o":"m 240 374 l 14 728 l 183 728 q 200 728 207 724 q 215 720 221 710 l 366 464 q 368 471 372 477 q 375 483 379 490 l 506 708 q 518 728 540 728 l 702 728 l 474 382 l 707 0 l 538 0 q 522 0 511 8 q 501 16 495 27 l 349 282 q 345 271 340 263 l 204 27 q 198 16 188 8 q 178 0 163 0 l 5 0 z"},"*":{"x_min":0,"x_max":400,"ha":400,"o":"m 163 408 l 163 494 q 163 504 164 514 q 166 524 168 533 q 162 526 154 520 q 146 515 137 510 l 64 467 l 28 526 l 101 569 q 110 574 120 578 q 130 582 140 584 q 130 586 120 591 q 110 595 101 600 l 28 644 l 64 704 l 137 660 q 146 654 154 649 q 162 643 169 636 q 163 653 163 674 l 163 762 l 236 762 l 236 676 q 236 665 235 655 q 234 645 230 636 q 237 643 245 649 q 253 654 262 660 l 335 703 l 371 643 l 298 600 q 288 595 278 591 q 269 587 259 585 q 269 583 279 579 q 288 574 298 569 l 371 526 l 335 466 l 262 510 q 252 515 244 521 q 236 526 230 534 q 236 516 236 495 l 236 408 z"},"Y":{"x_min":0,"x_max":677,"ha":677,"o":"m 423 277 l 423 0 l 254 0 l 254 277 l -10 728 l 139 728 q 161 728 174 718 q 187 708 195 692 l 298 480 q 310 454 321 433 q 332 412 340 390 q 347 412 358 434 q 368 455 380 480 l 482 692 q 485 698 490 705 q 496 712 502 717 q 509 722 518 725 q 526 728 537 728 l 687 728 z"},"c":{"x_min":0,"x_max":486,"ha":486,"o":"m 434 396 q 427 387 420 382 q 414 377 402 377 q 390 377 381 382 q 372 388 360 395 q 349 402 334 407 q 318 412 295 412 q 266 412 246 402 q 225 392 212 372 q 198 352 192 324 q 185 296 185 260 q 185 186 214 146 q 242 106 293 106 q 320 106 336 113 q 352 120 362 128 q 374 136 383 143 q 392 150 406 150 q 424 150 434 136 l 479 81 q 455 54 428 36 q 402 19 374 9 q 346 0 318 -4 q 290 -8 264 -8 q 216 -8 173 10 q 130 28 97 62 q 64 96 45 146 q 26 196 26 260 q 26 316 43 365 q 60 414 92 450 q 125 486 173 506 q 222 526 285 526 q 346 526 392 507 q 438 488 475 450 z"},"!":{"x_min":0,"x_max":376,"ha":376,"o":"m 262 728 l 262 442 q 262 396 256 351 q 251 306 242 259 l 137 259 q 128 306 122 351 q 117 396 117 442 l 117 728 z m 100 78 q 100 96 107 112 q 114 128 125 139 q 137 150 153 157 q 169 164 188 164 q 206 164 222 157 q 238 150 250 139 q 262 128 269 112 q 276 96 276 78 q 276 60 269 45 q 262 29 250 18 q 238 6 222 0 q 206 -7 188 -7 q 169 -7 153 0 q 137 6 125 18 q 114 29 107 45 q 100 60 100 78 z"},"/":{"x_min":0,"x_max":400,"ha":400,"o":"m 135 6 q 130 -8 121 -18 q 112 -28 101 -36 q 90 -42 78 -46 q 66 -50 54 -50 l -12 -50 l 272 696 q 282 722 302 735 q 323 748 350 748 l 416 748 z"},"[":{"x_min":0,"x_max":300,"ha":300,"o":"m 45 -162 l 45 778 l 269 778 l 269 720 q 269 704 258 693 q 246 682 229 682 l 174 682 l 174 -66 l 229 -66 q 246 -66 258 -76 q 269 -88 269 -102 l 269 -162 z"},"6":{"x_min":0,"x_max":580,"ha":580,"o":"m 344 462 q 384 462 422 448 q 460 436 491 408 q 522 382 540 340 q 559 299 559 243 q 559 192 540 146 q 521 100 486 66 q 452 32 402 12 q 354 -8 294 -8 q 233 -8 184 11 q 136 30 102 65 q 68 100 51 148 q 33 196 33 253 q 33 308 54 362 q 75 416 116 472 l 280 693 q 291 708 313 718 q 335 728 363 728 l 501 728 l 285 470 q 280 465 275 459 q 270 454 266 448 q 284 454 303 458 q 322 462 344 462 z m 182 232 q 182 205 188 184 q 195 162 208 146 q 222 131 242 123 q 263 114 291 114 q 315 114 336 124 q 356 132 372 148 q 386 164 395 185 q 404 206 404 232 q 404 260 396 282 q 388 304 372 318 q 358 334 336 342 q 315 350 289 350 q 266 350 246 341 q 226 333 212 318 q 198 302 190 280 q 182 259 182 232 z"},"r":{"x_min":0,"x_max":413,"ha":413,"o":"m 60 0 l 60 518 l 152 518 q 164 518 171 516 q 179 514 184 510 q 190 506 192 499 q 195 492 197 482 l 206 434 q 234 478 270 503 q 305 528 347 528 q 382 528 404 512 l 384 398 q 382 387 376 383 q 370 378 360 378 q 352 378 340 381 q 328 383 311 383 q 250 383 215 318 l 215 0 z"},"2":{"x_min":0,"x_max":580,"ha":580,"o":"m 301 736 q 355 736 398 721 q 442 705 472 677 q 502 649 519 610 q 535 572 535 525 q 535 485 524 451 q 512 417 493 386 q 474 356 448 327 q 422 298 393 268 l 250 122 q 278 130 305 135 q 332 140 355 140 l 491 140 q 516 140 530 126 q 545 112 545 90 l 545 0 l 33 0 l 33 50 q 33 64 39 81 q 45 98 60 111 l 270 322 q 297 350 317 374 q 337 398 350 422 q 363 446 370 470 q 376 494 376 520 q 376 564 355 587 q 334 610 292 610 q 274 610 260 605 q 246 600 234 592 q 222 583 214 572 q 206 560 201 546 q 193 524 181 514 q 168 504 148 504 q 142 504 137 504 q 131 505 125 506 l 43 520 q 51 575 74 616 q 96 656 130 683 q 164 710 208 723 q 251 736 301 736 z"},"{":{"x_min":0,"x_max":300,"ha":300,"o":"m 60 198 q 60 228 48 247 q 37 265 7 265 l 7 352 q 22 352 32 356 q 42 362 48 370 q 54 379 57 391 q 60 404 60 418 q 60 440 57 462 q 54 485 51 508 q 48 530 45 553 q 42 576 42 599 q 42 640 54 673 q 66 706 90 730 q 115 753 153 766 q 191 778 244 778 l 270 778 l 270 712 q 270 704 266 698 q 263 692 258 689 q 253 686 248 684 q 242 682 238 682 q 206 682 192 662 q 177 643 177 608 q 177 581 179 556 q 182 532 184 509 q 186 486 189 464 q 191 442 191 420 q 191 401 186 384 q 181 366 171 351 q 160 336 146 325 q 130 314 111 308 q 130 302 146 291 q 160 280 171 265 q 181 250 186 233 q 191 215 191 196 q 191 174 189 152 q 186 130 184 107 q 182 84 179 60 q 177 36 177 8 q 177 -26 192 -46 q 206 -66 238 -66 q 242 -66 248 -67 q 253 -69 258 -72 q 263 -76 266 -82 q 270 -87 270 -95 l 270 -162 l 244 -162 q 191 -162 153 -149 q 115 -136 90 -113 q 66 -89 54 -56 q 42 -23 42 18 q 42 40 45 64 q 48 86 51 109 q 54 132 57 154 q 60 176 60 198 z"},"9":{"x_min":0,"x_max":580,"ha":580,"o":"m 256 284 q 220 284 185 297 q 150 310 121 336 q 92 362 74 401 q 56 440 56 494 q 56 544 74 588 q 92 632 126 665 q 160 698 207 717 q 254 736 312 736 q 371 736 418 718 q 464 700 496 668 q 528 636 546 591 q 563 546 563 492 q 563 456 557 424 q 552 393 541 364 q 531 336 516 309 q 502 283 484 258 l 327 34 q 317 20 296 10 q 274 0 247 0 l 104 0 l 335 276 q 342 284 348 292 q 354 300 360 308 q 338 296 312 290 q 285 284 256 284 z m 415 506 q 415 532 407 553 q 400 573 386 586 q 372 600 352 607 q 333 614 310 614 q 286 614 268 606 q 250 598 237 583 q 224 568 218 549 q 211 529 211 506 q 211 397 312 397 q 362 397 388 427 q 415 456 415 506 z"}," ":{"x_min":0,"x_max":193,"ha":193,"o":""},"I":{"x_min":0,"x_max":320,"ha":320,"o":"m 245 0 l 75 0 l 75 728 l 245 728 z"},"H":{"x_min":0,"x_max":756,"ha":756,"o":"m 696 0 l 526 0 l 526 308 l 230 308 l 230 0 l 60 0 l 60 728 l 230 728 l 230 424 l 526 424 l 526 728 l 696 728 z"},"4":{"x_min":0,"x_max":580,"ha":580,"o":"m 488 283 l 563 283 l 563 196 q 563 184 555 176 q 548 168 533 168 l 488 168 l 488 0 l 353 0 l 353 168 l 60 168 q 46 168 34 176 q 22 186 19 199 l 3 276 l 340 728 l 488 728 z m 353 473 q 353 490 354 511 q 356 531 358 552 l 166 283 l 353 283 z"},"~":{"x_min":0,"x_max":580,"ha":580,"o":"m 365 338 q 389 338 402 354 q 415 370 415 400 l 540 400 q 540 357 529 323 q 518 289 496 265 q 476 242 445 229 q 414 216 375 216 q 348 216 325 222 q 302 228 282 235 q 262 242 245 248 q 228 254 215 254 q 191 254 178 238 q 165 222 165 192 l 40 192 q 40 235 51 269 q 62 303 84 327 q 104 350 135 363 q 166 376 205 376 q 232 376 255 370 q 278 364 298 357 q 318 350 335 344 q 352 338 365 338 z"},"D":{"x_min":0,"x_max":742,"ha":742,"o":"m 721 364 q 721 286 694 219 q 666 152 617 103 q 568 54 498 27 q 428 0 343 0 l 60 0 l 60 728 l 343 728 q 428 728 498 701 q 568 674 617 625 q 666 576 694 510 q 721 443 721 364 z m 548 364 q 548 418 534 462 q 520 506 494 536 q 468 566 430 582 q 392 598 343 598 l 230 598 l 230 130 l 343 130 q 392 130 430 146 q 468 162 494 193 q 520 223 534 266 q 548 310 548 364 z"},"^":{"x_min":0,"x_max":580,"ha":580,"o":"m 531 384 l 417 384 q 404 384 394 391 q 386 398 380 408 l 318 526 q 310 542 302 557 q 295 572 290 586 q 284 572 278 557 q 272 542 263 526 l 203 408 q 198 398 188 391 q 179 384 164 384 l 44 384 l 237 728 l 338 728 z"},"0":{"x_min":0,"x_max":580,"ha":580,"o":"m 560 364 q 560 269 540 199 q 519 129 483 83 q 446 37 397 14 q 347 -8 289 -8 q 231 -8 182 14 q 132 37 96 83 q 60 129 40 199 q 20 269 20 364 q 20 460 40 530 q 60 600 96 646 q 132 692 182 714 q 231 736 289 736 q 347 736 397 714 q 446 692 483 646 q 519 600 540 530 q 560 460 560 364 z m 400 364 q 400 440 390 488 q 381 536 365 564 q 350 592 330 602 q 310 612 289 612 q 268 612 249 602 q 229 592 214 564 q 198 536 189 488 q 180 440 180 364 q 180 288 189 240 q 198 192 214 165 q 229 137 249 127 q 268 116 289 116 q 310 116 330 127 q 350 137 365 165 q 381 192 390 240 q 400 288 400 364 z"},"F":{"x_min":0,"x_max":557,"ha":557,"o":"m 529 728 l 529 598 l 230 598 l 230 414 l 479 414 l 479 284 l 230 284 l 230 0 l 60 0 l 60 728 z"},"`":{"x_min":0,"x_max":330,"ha":330,"o":"m 126 736 q 150 736 161 729 q 172 721 181 706 l 249 584 l 161 584 q 144 584 133 589 q 122 594 111 605 l -19 736 z"},"k":{"x_min":0,"x_max":576,"ha":576,"o":"m 215 748 l 215 329 l 238 329 q 252 329 260 333 q 268 337 275 348 l 373 494 q 382 506 393 512 q 405 518 423 518 l 565 518 l 431 334 q 422 321 410 311 q 399 301 386 293 q 408 276 425 248 l 571 0 l 431 0 q 414 0 401 6 q 388 12 380 26 l 282 210 q 275 222 268 226 q 260 230 245 230 l 215 230 l 215 0 l 60 0 l 60 748 z"},"u":{"x_min":0,"x_max":580,"ha":580,"o":"m 205 518 l 205 190 q 205 151 222 130 q 240 109 274 109 q 300 109 322 120 q 344 130 365 149 l 365 518 l 520 518 l 520 0 l 424 0 q 395 0 386 26 l 376 56 q 362 42 346 30 q 330 18 311 10 q 293 2 272 -3 q 251 -8 226 -8 q 184 -8 151 7 q 118 22 96 48 q 73 74 62 110 q 50 146 50 190 l 50 518 z"},"]":{"x_min":0,"x_max":300,"ha":300,"o":"m 31 778 l 255 778 l 255 -162 l 31 -162 l 31 -102 q 31 -88 42 -76 q 54 -66 71 -66 l 126 -66 l 126 682 l 71 682 q 54 682 42 693 q 31 704 31 720 z"},"U":{"x_min":0,"x_max":726,"ha":726,"o":"m 363 134 q 397 134 424 145 q 450 156 469 177 q 488 198 497 228 q 507 258 507 297 l 507 728 l 676 728 l 676 297 q 676 230 654 174 q 632 118 592 78 q 552 37 494 14 q 436 -8 363 -8 q 290 -8 232 14 q 174 37 134 78 q 93 118 72 174 q 50 230 50 297 l 50 728 l 219 728 l 219 298 q 219 259 229 229 q 238 198 257 177 q 276 156 302 145 q 329 134 363 134 z"},"o":{"x_min":0,"x_max":580,"ha":580,"o":"m 291 526 q 350 526 398 508 q 447 490 482 455 q 516 420 536 371 q 555 322 555 260 q 555 198 536 149 q 516 99 482 64 q 447 30 398 11 q 350 -8 291 -8 q 232 -8 183 11 q 134 30 99 64 q 64 99 44 149 q 25 198 25 260 q 25 322 44 371 q 64 420 99 455 q 134 490 183 508 q 232 526 291 526 z m 291 107 q 344 107 370 145 q 395 182 395 260 q 395 336 370 374 q 344 412 291 412 q 236 412 210 374 q 185 336 185 260 q 185 182 210 145 q 236 107 291 107 z"},"N":{"x_min":0,"x_max":756,"ha":756,"o":"m 149 728 q 160 728 168 728 q 175 726 181 724 q 187 721 192 716 q 198 711 205 702 l 551 265 q 549 286 548 306 q 547 326 547 343 l 547 728 l 696 728 l 696 0 l 608 0 q 588 0 575 6 q 562 12 549 28 l 206 462 q 207 443 208 425 q 209 406 209 390 l 209 0 l 60 0 l 60 728 l 149 728 z"},"+":{"x_min":0,"x_max":580,"ha":580,"o":"m 352 590 l 352 392 l 537 392 l 537 280 l 352 280 l 352 82 l 226 82 l 226 280 l 42 280 l 42 392 l 226 392 l 226 590 z"},"G":{"x_min":0,"x_max":712,"ha":712,"o":"m 403 122 q 438 122 465 128 q 492 134 516 144 l 516 254 l 444 254 q 428 254 419 263 q 410 272 410 284 l 410 378 l 669 378 l 669 70 q 641 50 611 35 q 580 20 546 10 q 512 1 473 -4 q 434 -8 390 -8 q 310 -8 242 20 q 174 48 124 98 q 74 148 46 216 q 18 284 18 364 q 18 446 45 514 q 72 582 122 632 q 172 682 244 709 q 315 736 403 736 q 448 736 488 729 q 528 722 562 708 q 596 696 624 678 q 652 660 674 638 l 625 564 q 618 554 608 548 q 598 542 587 542 q 572 542 556 552 q 536 564 518 572 q 500 581 482 586 q 464 592 443 594 q 422 597 397 597 q 350 597 312 580 q 274 564 247 533 q 220 502 206 460 q 191 417 191 364 q 191 306 207 262 q 223 216 251 186 q 280 154 318 138 q 357 122 403 122 z"},"q":{"x_min":0,"x_max":580,"ha":580,"o":"m 520 518 l 520 -164 l 365 -164 l 365 56 q 336 28 299 10 q 262 -8 213 -8 q 172 -8 138 10 q 104 28 78 62 q 54 96 39 145 q 25 194 25 258 q 25 316 41 365 q 57 415 86 451 q 116 488 156 508 q 198 528 247 528 q 270 528 290 524 q 308 520 324 513 q 340 506 354 495 q 367 484 380 472 l 386 492 q 395 518 424 518 z m 267 111 q 284 111 298 114 q 312 118 323 124 q 334 130 345 138 q 355 148 365 160 l 365 380 q 347 398 327 406 q 306 414 284 414 q 262 414 244 406 q 226 398 213 379 q 200 360 192 330 q 185 300 185 258 q 185 216 191 188 q 197 160 208 143 q 218 126 234 118 q 248 111 267 111 z"},"d":{"x_min":0,"x_max":580,"ha":580,"o":"m 424 0 q 410 0 400 6 q 390 13 386 26 l 374 66 q 358 49 342 36 q 324 22 305 12 q 285 2 262 -3 q 240 -8 213 -8 q 172 -8 138 10 q 104 28 78 62 q 54 96 39 145 q 25 194 25 258 q 25 316 41 365 q 57 415 86 451 q 116 488 156 508 q 198 528 247 528 q 287 528 315 517 q 342 505 365 486 l 365 748 l 520 748 l 520 0 z m 267 111 q 284 111 298 114 q 312 118 323 124 q 334 130 345 138 q 355 148 365 160 l 365 380 q 347 399 327 407 q 306 414 284 414 q 262 414 244 406 q 226 398 213 379 q 200 360 192 330 q 185 300 185 258 q 185 216 191 188 q 197 160 208 143 q 218 126 234 118 q 248 111 267 111 z"},"1":{"x_min":0,"x_max":580,"ha":580,"o":"m 126 112 l 266 112 l 266 480 q 266 506 268 536 l 185 468 q 177 461 169 458 q 161 456 154 456 q 140 456 130 461 q 120 467 115 474 l 66 538 l 293 729 l 421 729 l 421 112 l 541 112 l 541 0 l 126 0 z"},"5":{"x_min":0,"x_max":580,"ha":580,"o":"m 499 664 q 499 648 494 636 q 489 622 478 613 q 468 603 450 598 q 432 592 408 592 l 234 592 l 214 472 q 234 476 253 477 q 272 479 290 479 q 348 479 392 462 q 436 444 466 414 q 496 384 511 343 q 526 302 526 256 q 526 197 505 149 q 484 100 448 66 q 410 30 359 11 q 308 -8 247 -8 q 212 -8 179 0 q 147 7 119 20 q 90 32 66 49 q 42 66 23 85 l 71 149 q 78 159 88 164 q 98 170 110 170 q 125 170 138 161 q 152 153 167 143 q 183 134 204 126 q 225 118 256 118 q 287 118 309 128 q 331 138 345 156 q 358 174 365 197 q 371 221 371 248 q 371 301 341 329 q 311 356 256 356 q 207 356 160 338 l 64 364 l 126 728 l 499 728 z"}}}
